<svg width="133" height="36" viewBox="0 0 133 36" fill="none" xmlns="http://www.w3.org/2000/svg">
<g id="g135">
<path id="path91" d="M11.9182 10.9516C9.81845 10.7294 7.72897 11.5335 6.01419 13.2235V0L0 0.272088V4.15207H2.20809V35.6137H6.00631V33.5594C7.14005 34.6716 8.44437 35.4065 9.81746 35.7068C11.1905 36.0071 12.5952 35.8645 13.9219 35.2903C15.2486 34.7162 16.4613 33.7258 17.4655 32.3967C18.4696 31.0675 19.238 29.4355 19.7107 27.628C20.1833 25.8206 20.3474 23.8865 20.1902 21.9769C20.033 20.0672 19.5587 18.2336 18.8043 16.6192C18.05 15.0048 17.0359 13.6533 15.8414 12.6702C14.6469 11.687 13.3042 11.0989 11.9182 10.9516ZM14.6871 28.7951L14.9961 32.5853L12.5184 30.3814C11.2783 30.8188 9.9652 30.6122 8.82787 29.8008C7.69054 28.9893 6.80796 27.6294 6.3473 25.9785C5.88664 24.3276 5.8799 22.5005 6.32835 20.8432C6.7768 19.1859 7.6493 17.8136 8.78058 16.9861C9.91186 16.1587 11.2234 15.9336 12.4666 16.3535C13.7099 16.7734 14.7986 17.8091 15.5266 19.2645C16.2545 20.7199 16.5711 22.4938 16.4164 24.2503C16.2617 26.0068 15.6464 27.6238 14.6871 28.7951Z" fill="white"/>
<path id="path93" d="M32.8969 35.5511H36.7129V11.1556L30.7007 11.4277V15.3104H32.9087V25.9926C32.9087 28.3271 31.6984 30.4113 30.0217 30.7106C29.5524 30.7958 29.0754 30.7415 28.6224 30.5515C28.1695 30.3615 27.7511 30.0401 27.3952 29.6087C27.0392 29.1774 26.7539 28.646 26.5583 28.0501C26.3627 27.4543 26.2613 26.8075 26.2609 26.1531V11.1556L20.2703 11.4277V15.3104H22.4784V26.1531C22.4841 28.7623 23.2363 31.2623 24.5707 33.1072C25.9052 34.9521 27.7134 35.9921 29.6005 36C30.7599 36.0006 31.9015 35.6062 32.9245 34.8518" fill="white"/>
<path id="path95" d="M70.4896 11.4277C69.3302 11.4272 68.1886 11.8215 67.1656 12.5759V11.4522L61.1573 11.7243V15.6043H63.3694V35.766H67.1695V21.4242C67.1695 19.0897 68.3799 17.0055 70.0566 16.709C70.5259 16.6238 71.0029 16.6781 71.4558 16.8681C71.9088 17.0581 72.3272 17.3795 72.6831 17.8108C73.039 18.2422 73.3243 18.7735 73.52 19.3694C73.7156 19.9653 73.817 20.612 73.8174 21.2664V35.7687H77.6157V21.2637C77.6079 18.6555 76.8542 16.1575 75.5192 14.3148C74.1841 12.472 72.376 11.4342 70.4896 11.4277Z" fill="white"/>
<path id="polygon97" d="M52.7265 11.4306V15.3106H54.9326V35.6138H58.7328V11.1585L52.7265 11.4306Z" fill="white"/>
<path id="circle99" d="M56.4695 7.4171C57.7738 7.4171 58.8311 5.95529 58.8311 4.15204C58.8311 2.3488 57.7738 0.886978 56.4695 0.886978C55.1653 0.886978 54.108 2.3488 54.108 4.15204C54.108 5.95529 55.1653 7.4171 56.4695 7.4171Z" fill="white"/>
<path id="path101" d="M45.7145 20.8364C42.4043 19.9058 42.4043 19.0324 42.4043 18.3876V18.3359C42.4043 17.2775 43.3726 16.1374 44.9371 16.1374C46.2536 16.1552 47.5297 16.7687 48.5701 17.8842L50.849 13.7594C49.1642 11.9783 47.0993 11.0213 44.9785 11.0385C41.4361 11.0385 38.6671 14.2627 38.6671 18.3849V18.4202C38.6671 23.4403 41.8159 24.9966 44.8781 25.8564C48.2493 26.8033 48.2493 27.6794 48.2493 28.3841V28.4413C48.2493 30.0983 46.8717 30.8384 45.4941 30.8384C44.7068 30.8472 43.9262 30.6382 43.1982 30.2237C42.4702 29.8093 41.8095 29.1977 41.255 28.4249L38.6514 32.158C40.4745 34.5992 42.9148 35.9601 45.4528 35.9509C49.2392 35.9509 51.9885 32.7811 51.9885 28.414V28.3569C51.9845 23.2825 48.8062 21.7071 45.7145 20.8364Z" fill="white"/>
<path id="path103" d="M105.823 20.8364C102.513 19.9058 102.513 19.0324 102.513 18.3876V18.3359C102.513 17.2775 103.481 16.1374 105.046 16.1374C106.362 16.1552 107.638 16.7687 108.678 17.8842L110.957 13.7594C109.273 11.9783 107.208 11.0213 105.087 11.0385C101.544 11.0385 98.7755 14.2627 98.7755 18.3849V18.4202C98.7755 23.4403 101.924 24.9966 104.986 25.8564C108.358 26.8033 108.358 27.6794 108.358 28.3841V28.4413C108.358 30.0983 106.98 30.8384 105.602 30.8384C104.813 30.849 104.03 30.6407 103.3 30.2257C102.57 29.8106 101.907 29.1974 101.352 28.4222L98.748 32.1553C100.571 34.5965 103.011 35.9573 105.549 35.9482C109.336 35.9482 112.085 32.7783 112.085 28.4113V28.3542C112.093 23.2825 108.922 21.7071 105.823 20.8364Z" fill="white"/>
<path id="path105" d="M120.41 20.8364C117.096 19.9031 117.096 19.0297 117.096 18.393V18.3359C117.096 17.2775 118.064 16.1374 119.628 16.1374C120.945 16.1552 122.221 16.7687 123.261 17.8842L125.54 13.7594C123.855 11.9783 121.791 11.0213 119.67 11.0385C116.127 11.0385 113.358 14.2627 113.358 18.3849V18.4202C113.358 23.4403 116.507 24.9966 119.569 25.8564C122.941 26.8033 122.941 27.6794 122.941 28.3841V28.4413C122.941 30.0983 121.563 30.8384 120.185 30.8384C119.398 30.8472 118.617 30.6382 117.889 30.2237C117.161 29.8093 116.501 29.1977 115.946 28.4249L113.343 32.158C115.166 34.5992 117.606 35.9601 120.144 35.9509C123.93 35.9509 126.68 32.7811 126.68 28.414V28.3569C126.68 23.2825 123.509 21.7071 120.41 20.8364Z" fill="white"/>
<path id="path107" d="M128.707 16.8012C128.707 16.0681 128.917 15.365 129.292 14.8467C129.667 14.3283 130.176 14.0371 130.706 14.0371C131.236 14.0371 131.745 14.3283 132.12 14.8467C132.495 15.365 132.706 16.0681 132.706 16.8012C132.718 17.2025 132.666 17.6027 132.551 17.9719C132.437 18.3412 132.263 18.67 132.044 18.9341L131.454 18.175C131.603 18.0071 131.722 17.796 131.805 17.5566C131.888 17.3172 131.931 17.0555 131.932 16.7903C131.932 15.9007 131.381 15.2532 130.706 15.2532C130.031 15.2532 129.464 15.9115 129.464 16.8501C129.469 17.1144 129.515 17.3742 129.597 17.6128C129.679 17.8514 129.797 18.0633 129.943 18.2349L129.419 18.9722C129.189 18.7088 129.005 18.3764 128.882 18.0003C128.758 17.6241 128.698 17.2141 128.707 16.8012Z" fill="white"/>
<path id="path109" d="M128.707 22.9261C128.699 22.5581 128.745 22.1918 128.841 21.8487C128.938 21.5057 129.083 21.1929 129.269 20.9288C129.454 20.6647 129.676 20.4547 129.921 20.3113C130.167 20.1678 130.43 20.0938 130.696 20.0936C131.107 20.0741 131.513 20.2248 131.861 20.5265C132.209 20.8281 132.484 21.2669 132.651 21.7864C132.817 22.3059 132.868 22.8824 132.795 23.4417C132.723 24.0011 132.532 24.5178 132.245 24.9254C131.959 25.3331 131.591 25.613 131.189 25.7292C130.786 25.8455 130.368 25.7927 129.988 25.5778C129.607 25.3628 129.282 24.9955 129.054 24.5229C128.825 24.0504 128.705 23.4943 128.707 22.9261ZM131.936 22.9261C131.936 21.9465 131.385 21.318 130.71 21.318C130.55 21.3066 130.39 21.3403 130.239 21.4172C130.089 21.4941 129.952 21.6125 129.835 21.7653C129.719 21.9181 129.627 22.1019 129.564 22.3057C129.5 22.5095 129.468 22.7289 129.468 22.9506C129.468 23.941 130.019 24.5695 130.694 24.5695C130.855 24.5802 131.015 24.5456 131.166 24.4677C131.316 24.3898 131.453 24.2702 131.569 24.1164C131.685 23.9626 131.777 23.7776 131.84 23.573C131.902 23.3683 131.933 23.1482 131.932 22.9261H131.936Z" fill="white"/>
<path id="path111" d="M132.7 33.5458C132.7 34.7076 132.17 35.4177 131.234 35.4177H128.787V34.1933H130.966C131.576 34.1933 131.903 33.7988 131.903 33.105C131.903 32.4112 131.568 31.9622 130.952 31.9622H128.787V30.746H130.972C131.562 30.746 131.901 30.3406 131.901 29.6576C131.901 28.9747 131.539 28.5149 130.942 28.5149H128.778V27.2905H132.611V28.5149H132.021C132.223 28.6853 132.391 28.9251 132.506 29.2111C132.622 29.4971 132.683 29.8196 132.682 30.1474C132.694 30.4743 132.636 30.7988 132.516 31.0811C132.396 31.3634 132.219 31.5911 132.007 31.7364C132.221 31.9363 132.396 32.2059 132.517 32.5215C132.638 32.837 132.7 33.1888 132.7 33.5458Z" fill="white"/>
<path id="ellipse113" d="M129.267 12.6655C129.581 12.6655 129.834 12.3122 129.834 11.8765C129.834 11.4408 129.581 11.0875 129.267 11.0875C128.954 11.0875 128.701 11.4408 128.701 11.8765C128.701 12.3122 128.954 12.6655 129.267 12.6655Z" fill="white"/>
<path id="path115" d="M97.3663 25.5763C97.5806 23.875 97.5371 22.1308 97.2384 20.454C96.9397 18.7771 96.3925 17.2044 95.6313 15.8352C94.8701 14.466 93.9115 13.3303 92.8163 12.5C91.7211 11.6697 90.5131 11.1629 89.2689 11.0117C88.0246 10.8604 86.7712 11.0681 85.588 11.6215C84.4048 12.1749 83.3176 13.0619 82.3953 14.2264C81.473 15.391 80.7356 16.8076 80.23 18.3867C79.7243 19.9657 79.4613 21.6727 79.4576 23.3996C79.4576 23.3996 79.4576 23.4187 79.4576 23.4268C79.4576 23.4894 79.4576 23.5493 79.4576 23.6119C79.4576 23.737 79.4576 23.8595 79.4576 23.9846C79.4576 24.1098 79.4694 24.2567 79.4773 24.3982C79.4773 24.4444 79.4773 24.4934 79.4773 24.5397C79.4773 24.6839 79.4989 24.8281 79.5127 24.9696C79.5127 25.0158 79.5127 25.0648 79.5265 25.1111C79.5383 25.2362 79.552 25.3614 79.5678 25.4865C79.5678 25.5192 79.5678 25.5491 79.5776 25.5818C80.3451 31.429 84.1729 35.8749 88.7839 35.8749C90.3737 35.8908 91.9406 35.3503 93.3387 34.3036C94.7368 33.257 95.9205 31.7383 96.7799 29.8889L93.5169 27.2089C92.9953 28.2686 92.2925 29.1339 91.471 29.7281C90.6495 30.3224 89.7346 30.6271 88.8075 30.6154C86.3259 30.6154 84.2201 28.4931 83.5136 25.5736H97.3643L97.3663 25.5763ZM88.4828 16.192C89.5899 16.1923 90.6682 16.6802 91.5613 17.5847C92.4544 18.4893 93.116 19.7636 93.45 21.2229H83.5176C83.8515 19.764 84.5127 18.49 85.4055 17.5855C86.2982 16.681 87.376 16.1929 88.4828 16.192Z" fill="white"/>
</g>
</svg>
