<svg width="89" height="89" viewBox="0 0 89 89" fill="none" xmlns="http://www.w3.org/2000/svg">
<g clip-path="url(#clip0_118_101)">
<path d="M43.7583 40.4208C35.3404 38.2329 32.6333 35.9708 32.6333 32.4479C32.6333 28.4058 36.3787 25.5875 42.6458 25.5875C49.2466 25.5875 51.6941 28.7396 51.9166 33.375H60.112C59.8525 26.9967 55.9587 21.1375 48.2083 19.2463V11.125H37.0833V19.135C29.8891 20.6925 24.1041 25.365 24.1041 32.5221C24.1041 41.0883 31.1871 45.3529 41.5333 47.8375C50.8041 50.0625 52.6583 53.3258 52.6583 56.7746C52.6583 59.3333 50.8412 63.4125 42.6458 63.4125C35.0066 63.4125 32.0029 60.0008 31.595 55.625H23.4366C23.8816 63.7463 29.9633 68.3075 37.0833 69.8279V77.875H48.2083V69.9021C55.4396 68.53 61.1875 64.3396 61.1875 56.7375C61.1875 46.2058 52.1762 42.6087 43.7583 40.4208Z" fill="#0067F4"/>
</g>
<defs>
<clipPath id="clip0_118_101">
<rect width="89" height="89" fill="white"/>
</clipPath>
</defs>
</svg>
